<svg width="16" height="16" viewBox="0 0 16 16" fill="none" xmlns="http://www.w3.org/2000/svg">
<path id="DownloadBtn" fill-rule="evenodd" clip-rule="evenodd" d="M5.01366 6.77078L7.00982 9.57448L7.00182 1.4184C7.00182 1.1664 7.22782 0.962402 7.50582 0.962402C7.78382 0.962402 8.00982 1.1664 8.00982 1.4184V9.57448L10.0067 6.77078C10.2067 6.57448 10.6067 6.57448 10.8067 6.77078C11.0067 6.97448 11.0067 7.37448 10.8067 7.57836L7.51184 11.9804L4.20982 7.57836C4.01044 7.37448 4.01147 6.97352 4.20982 6.77078C4.40818 6.57448 4.80982 6.57206 5.01366 6.77078ZM13.0427 16H2.04266C0.938664 16 0.0426636 15.104 0.0426636 14V8.0358C0.0426636 7.03588 1.04265 7.03575 1.04266 8.03575V14C1.04266 14.5 1.54266 15 2.04266 15H13.0427C13.5427 15 14.0427 14.5 14.0427 14V8.03566C14.03 7.03573 15.0427 6.93071 15.0427 8.03571V14C15.0427 15.105 14.1467 16 13.0427 16Z" fill="#727272"/>
</svg>
