<svg width="14" height="19" viewBox="0 0 14 19" fill="none" xmlns="http://www.w3.org/2000/svg">
<g id="IncreaseFont">
<path id="HorizontalLine" fill-rule="evenodd" clip-rule="evenodd" d="M9 4.5005C9 4.22478 9.08 4 9.17857 4H13.8214C13.9196 4 14 4.22478 14 4.5005C14 4.77622 13.9196 5 13.8214 5H9.17857C9.08 5 9 4.77622 9 4.5005Z" fill="#727272"/>
<path id="VerticalLine" fill-rule="evenodd" clip-rule="evenodd" d="M11.4995 2C11.7752 2 12 2.08 12 2.17857L12 6.82143C12 6.91964 11.7752 7 11.4995 7C11.2238 7 11 6.91964 11 6.82143L11 2.17857C11 2.08 11.2238 2 11.4995 2Z" fill="#727272"/>
<path id="A" d="M5.53125 4.63281L1.76562 15H0.226562L4.5625 3.625H5.55469L5.53125 4.63281ZM8.6875 15L4.91406 4.63281L4.89062 3.625H5.88281L10.2344 15H8.6875ZM8.49219 10.7891V12.0234H2.10156V10.7891H8.49219Z" fill="#727272"/>
</g>
</svg>
