<svg width="11" height="12" viewBox="0 0 11 12" fill="none" xmlns="http://www.w3.org/2000/svg">
<path id="OutlineColor" d="M5.53125 1.63281L5.71923 1.70109L5.73043 1.67026L5.7312 1.63746L5.53125 1.63281ZM1.76562 12V12.2H1.90576L1.95361 12.0683L1.76562 12ZM0.226562 12L0.0396792 11.9288L-0.0637111 12.2H0.226562V12ZM4.5625 0.625V0.425H4.4247L4.37562 0.553764L4.5625 0.625ZM5.55469 0.625L5.75463 0.62965L5.75939 0.425H5.55469V0.625ZM8.6875 12L8.49956 12.0684L8.54746 12.2H8.6875V12ZM4.91406 1.63281L4.71412 1.63746L4.71488 1.67033L4.72612 1.70122L4.91406 1.63281ZM4.89062 0.625V0.425H4.68592L4.69068 0.62965L4.89062 0.625ZM5.88281 0.625L6.06961 0.55354L6.02044 0.425H5.88281V0.625ZM10.2344 12V12.2H10.525L10.4212 11.9285L10.2344 12ZM8.49219 7.78906H8.69219V7.58906H8.49219V7.78906ZM8.49219 9.02344V9.22344H8.69219V9.02344H8.49219ZM2.10156 9.02344H1.90156V9.22344H2.10156V9.02344ZM2.10156 7.78906V7.58906H1.90156V7.78906H2.10156ZM5.34327 1.56453L1.57764 11.9317L1.95361 12.0683L5.71923 1.70109L5.34327 1.56453ZM1.76562 11.8H0.226562V12.2H1.76562V11.8ZM0.413446 12.0712L4.74938 0.696236L4.37562 0.553764L0.0396792 11.9288L0.413446 12.0712ZM4.5625 0.825H5.55469V0.425H4.5625V0.825ZM5.35474 0.62035L5.3313 1.62816L5.7312 1.63746L5.75463 0.62965L5.35474 0.62035ZM8.87544 11.9316L5.102 1.56441L4.72612 1.70122L8.49956 12.0684L8.87544 11.9316ZM5.11401 1.62816L5.09057 0.62035L4.69068 0.62965L4.71412 1.63746L5.11401 1.62816ZM4.89062 0.825H5.88281V0.425H4.89062V0.825ZM5.69601 0.69646L10.0476 12.0715L10.4212 11.9285L6.06961 0.55354L5.69601 0.69646ZM10.2344 11.8H8.6875V12.2H10.2344V11.8ZM8.29219 7.78906V9.02344H8.69219V7.78906H8.29219ZM8.49219 8.82344H2.10156V9.22344H8.49219V8.82344ZM2.30156 9.02344V7.78906H1.90156V9.02344H2.30156ZM2.10156 7.98906H8.49219V7.58906H2.10156V7.98906Z" fill="#727272"/>
</svg>
