<svg width="15" height="15" viewBox="0 0 15 15" fill="none" xmlns="http://www.w3.org/2000/svg">
<path id="SaveBtn" fill-rule="evenodd" clip-rule="evenodd" d="M2 15H13C14.104 15 15 14.105 15 13V5L9 0H2C0.896 0 0 0.896 0 2.001V13C0 14.104 0.896 15 2 15ZM8.45 1L14 5.55V13C14 13.553 13.552 14 13 14H2C1.447 14 1 13.553 1 13V2.001C1 1.449 1.447 1 2 1H8.45ZM5.19751 4.56628H9.92127C10.1733 4.56628 10.3773 4.34028 10.3773 4.06228C10.3773 3.78528 10.1733 3.55828 9.92127 3.55828H5.29751C5.24228 3.55828 5.19751 3.51351 5.19751 3.45828V1.01565H4.18951V3.55828V4.06628C4.18951 4.34242 4.41337 4.56628 4.68951 4.56628H5.19751ZM4.02389 10.0005V13.9732H3.01589V10.0876V9.03025H12.0078V10.0876V13.9732H11.0475V10.0005H4.02389Z" fill="#727272"/>
</svg>
