<svg width="16" height="16" viewBox="0 0 16 16" fill="none" xmlns="http://www.w3.org/2000/svg">
<path id="ShareBtn" fill-rule="evenodd" clip-rule="evenodd" d="M10.0155 6.17226L8.01936 3.36855L8.02736 11.5246C8.02736 11.7766 7.80136 11.9806 7.52336 11.9806C7.24536 11.9806 7.01936 11.7766 7.01936 11.5246V3.36855L5.02248 6.17226C4.82253 6.36855 4.42249 6.36855 4.22253 6.17226C4.02253 5.96855 4.02249 5.56855 4.22252 5.36467L7.51735 0.962646L10.8194 5.36467C11.0187 5.56855 11.0177 5.96952 10.8194 6.17226C10.621 6.36855 10.2194 6.37098 10.0155 6.17226ZM13.055 16H2.05499C0.950993 16 0.0549927 15.104 0.0549927 14V8.03583C0.0549927 7.03591 1.05498 7.03578 1.05499 8.03578V14C1.05499 14.5 1.55499 15 2.05499 15H13.055C13.555 15 14.055 14.5 14.055 14V8.03569C14.0423 7.03576 15.055 6.93074 15.055 8.03574V14C15.055 15.105 14.159 16 13.055 16Z" fill="#727272"/>
</svg>
